{"title":"State.of.Play.2003.DVDRip.x264.mkv  mini-series","uid":8757665,"size":5100855360,"categoryP":"video","categoryS":"tv_shows","magnet":"?xt=urn:btih:29d552db1dec7f7b84fa73241d4b20e8bba1949d&amp;dn=State.of.Play.2003.DVDRip.x264.mkv++mini-series&amp;tr=udp%3A%2F%2Ftracker.openbittorrent.com%3A80&amp;tr=udp%3A%2F%2Fopen.demonii.com%3A1337&amp;tr=udp%3A%2F%2Ftracker.coppersurfer.tk%3A6969&amp;tr=udp%3A%2F%2Fexodus.desync.com%3A6969","seeders":7,"leechers":1,"uploader":"kanaille","files":-1,"time":1375180049,"description":"The serial begins with the murder of a young man, in what appears to be a drug-related killing, and the apparently coincidental death of Sonia Baker, the young researcher for MP Stephen Collins (Morrissey). As the deaths are investigated by journalist Cal McCaffrey of The Herald (Simm) and his colleagues (including Kelly Macdonald as Della Smith and Bill Nighy as editor Cameron Foster) it appears that not only were the deaths connected, but that a conspiracy links them with oil industry-backed corruption of high-ranking British government ministers.\n\n6x57 minutes\n\n#####################################\n\n\nGeneral\nUnique ID                                : 170850096729346319637895890921204015498 (0x8088881F687CB802373444EC0310E18A)\nComplete name                            : /State.of.Play.E01.DVDRip.x264.mkv\nFormat                                   : Matroska\nFormat version                           : Version 2\nFile size                                : 812 MiB\nDuration                                 : 56mn 58s\nOverall bit rate                         : 1 992 Kbps\nEncoded date                             : UTC 2013-07-06 15:45:39\nWriting application                      : mkvmerge v5.6.0 ('Kenya Kane') built on May 28 2012 06:47:39\nWriting library                          : libebml v1.2.2 + libmatroska v1.3.0\n\nVideo\nID                                       : 1\nFormat                                   : AVC\nFormat/Info                              : Advanced Video Codec\nFormat profile                           : &lt;a class=&quot;__cf_email__&quot; href=&quot;/cdn-cgi/l/email-protection&quot; data-cfemail=&quot;f4bc9d939cb4b8c7dac5&quot;&gt;[email&amp;#160;protected]&lt;/a&gt;&lt;script cf-hash='f9e31' type=&quot;text/javascript&quot;&gt;\n/* &lt;![CDATA[ */!function(){try{var t=&quot;currentScript&quot;in document?document.currentScript:function(){for(var t=document.getElementsByTagName(&quot;script&quot;),e=t.length;e--;)if(t[e].getAttribute(&quot;cf-hash&quot;))return t[e]}();if(t&amp;&amp;t.previousSibling){var e,r,n,i,c=t.previousSibling,a=c.getAttribute(&quot;data-cfemail&quot;);if(a){for(e=&quot;&quot;,r=parseInt(a.substr(0,2),16),n=2;a.length-n;n+=2)i=parseInt(a.substr(n,2),16)^r,e+=String.fromCharCode(i);e=document.createTextNode(e),c.parentNode.replaceChild(e,c)}}}catch(u){}}();/* ]]&gt; */&lt;/script&gt;\nFormat settings, CABAC                   : Yes\nFormat settings, ReFrames                : 5 frames\nMuxing mode                              : Header stripping\nCodec ID                                 : V_MPEG4/ISO/AVC\nDuration                                 : 56mn 58s\nBit rate                                 : 1 800 Kbps\nWidth                                    : 716 pixels\nHeight                                   : 572 pixels\nDisplay aspect ratio                     : 16:9\nFrame rate mode                          : Variable\nFrame rate                               : 25.000 fps\nColor space                              : YUV\nChroma subsampling                       : 4:2:0\nBit depth                                : 8 bits\nScan type                                : Progressive\nBits/(Pixel*Frame)                       : 0.176\nStream size                              : 718 MiB (88%)\nWriting library                          : x264 core 116\nEncoding settings                        : cabac=1 // deblock=1:-1:-2 / analyse=0x3:0x133 / me=umh / subme=9 / psy=1 / psy_rd=1.00:0.10 // me_range=24 / chroma_me=1 / trellis=2 / 8x8dct=1 / cqm=0 / deadzone=21,11 / fast_pskip=0 / chroma_qp_offset=-3 / threads=3 / sliced_threads=0 / nr=0 / decimate=0 / interlaced=0 / bluray_compat=0 / constrained_intra=0 / bframes=5 / b_pyramid=1 / b_adapt=2 / b_bias=0 / direct=3 / weightb=1 / open_gop=0 / weightp=2 / keyint=250 / keyint_min=25 / scenecut=40 / intra_refresh=0 / rc_lookahead=40 / rc=2pass / mbtree=1 / bitrate=1800 / ratetol=1.0 / qcomp=0.60 / qpmin=3 / qpmax=69 / qpstep=4 / cplxblur=20.0 / qblur=0.5 / ip_ratio=1.40 / aq=1:1.00\nLanguage                                 : English\nDefault                                  : Yes\nForced                                   : No\nColor primaries                          : BT.601-6 525, BT.1358 525, BT.1700 NTSC, SMPTE 170M\nTransfer characteristics                 : BT.709-5, BT.1361\nMatrix coefficients                      : BT.601-6 525, BT.1358 525, BT.1700 NTSC, SMPTE 170M\n\nAudio\nID                                       : 2\nFormat                                   : AC-3\nFormat/Info                              : Audio Coding 3\nMode extension                           : CM (complete main)\nFormat settings, Endianness              : Big\nMuxing mode                              : Header stripping\nCodec ID                                 : A_AC3\nDuration                                 : 56mn 58s\nBit rate mode                            : Constant\nBit rate                                 : 192 Kbps\nChannel(s)                               : 2 channels\nChannel positions                        : Front: L R\nSampling rate                            : 48.0 KHz\nBit depth                                : 16 bits\nCompression mode                         : Lossy\nStream size                              : 78.3 MiB (10%)\nLanguage                                 : English\nDefault                                  : No\nForced                                   : No\n\nText\nID                                       : 3\nFormat                                   : UTF-8\nCodec ID                                 : S_TEXT/UTF8\nCodec ID/Info                            : UTF-8 Plain Text\nLanguage                                 : English\nDefault                                  : No\nForced                                   : No\n","torrent":{"xt":"urn:btih:29d552db1dec7f7b84fa73241d4b20e8bba1949d","amp;dn":"State.of.Play.2003.DVDRip.x264.mkv++mini-series","amp;tr":["udp%3A%2F%2Ftracker.openbittorrent.com%3A80","udp%3A%2F%2Fopen.demonii.com%3A1337","udp%3A%2F%2Ftracker.coppersurfer.tk%3A6969","udp%3A%2F%2Fexodus.desync.com%3A6969"],"infoHash":"29d552db1dec7f7b84fa73241d4b20e8bba1949d","infoHashBuffer":{"type":"Buffer","data":[41,213,82,219,29,236,127,123,132,250,115,36,29,75,32,232,187,161,148,157]},"announce":[],"urlList":[]}}